<svg xmlns="http://www.w3.org/2000/svg" viewBox="0 0 32 44"><path class="st0" fill="#FFF" d="M16 0C7.2 0 0 7.2 0 16c0 .6 0 1.3.1 2 1.2 11.4 13 24.1 13.5 24.7.3.3.7.6 1.1.9l.1.1.2.1.4.1.6.1.6-.2.4-.1h.1l.1-.1c.4-.2.8-.5 1.1-.9.5-.5 12.1-13.3 13.3-24.7.4-.8.4-1.4.4-2 0-8.8-7.2-16-16-16z"/><path class="st1" fill="#4381c1" d="M16 2C8.3 2 2 8.3 2 16c0 .6 0 1.2.1 1.7 1.2 10.9 13 23.5 13 23.5.2.2.4.4.6.5l.4.1.4-.1c.2-.1.4-.3.6-.5 0 0 11.6-12.6 12.8-23.6.1-.4.1-1 .1-1.6 0-7.7-6.3-14-14-14zm0 23c-5 0-9-4-9-9s4-9 9-9 9 4 9 9-4 9-9 9z"/></svg>